<?xml version="1.0" encoding="utf-8"?>
<!-- Generator: Adobe Illustrator 24.0.0, SVG Export Plug-In . SVG Version: 6.00 Build 0)  -->
<svg version="1.1" id="Layer_1" xmlns="http://www.w3.org/2000/svg" xmlns:xlink="http://www.w3.org/1999/xlink" x="0px" y="0px"
	 viewBox="0 0 300 300" style="enable-background:new 0 0 300 300;" xml:space="preserve">
<style type="text/css">
	.st0{fill:#AAAAAA;}
</style>
<path class="st0" d="M150,259.73L150,259.73c-9.74,0-17.64-7.9-17.64-17.64V57.92c0-9.74,7.9-17.64,17.64-17.64h0
	c9.74,0,17.64,7.9,17.64,17.64v184.17C167.64,251.83,159.74,259.73,150,259.73z"/>
<path class="st0" d="M259.73,150L259.73,150c0,9.74-7.9,17.64-17.64,17.64H57.92c-9.74,0-17.64-7.9-17.64-17.64v0
	c0-9.74,7.9-17.64,17.64-17.64h184.17C251.83,132.36,259.73,140.26,259.73,150z"/>
</svg>
