<?xml version="1.0" encoding="utf-8"?>
<!-- Generator: Adobe Illustrator 24.0.1, SVG Export Plug-In . SVG Version: 6.00 Build 0)  -->
<svg version="1.1" id="Layer_1" xmlns="http://www.w3.org/2000/svg" xmlns:xlink="http://www.w3.org/1999/xlink" x="0px" y="0px"
	 viewBox="0 0 2000 2000" style="enable-background:new 0 0 2000 2000;" xml:space="preserve">
<style type="text/css">
	.st0{fill:#F4F4F4;}
</style>
<g>
	<g>
		<path class="st0" d="M1641.3,338.3H358.7c-30.8,0-55.8-25-55.8-55.8s25-55.8,55.8-55.8h1282.7c30.8,0,55.8,25,55.8,55.8
			S1672.1,338.3,1641.3,338.3z"/>
	</g>
	<g>
		<path class="st0" d="M1439.9,1842.4H560.1c-25.5,0-46.2-20.7-46.2-46.2c0-25.5,20.7-46.2,46.2-46.2h879.9
			c25.5,0,46.2,20.7,46.2,46.2C1486.1,1821.7,1465.4,1842.4,1439.9,1842.4z"/>
	</g>
	<g>
		<path class="st0" d="M766.1,1562.5c-21,0-38.7-16.4-39.9-37.7l-48.9-861.6c-1.3-22,15.6-40.9,37.6-42.2
			c22-1.2,40.9,15.6,42.2,37.6l48.9,861.6c1.3,22-15.6,40.9-37.6,42.2C767.7,1562.4,766.9,1562.5,766.1,1562.5z"/>
	</g>
	<g>
		<path class="st0" d="M1001.8,1562.5c-22.1,0-40-17.9-40-40V660.9c0-22.1,17.9-40,40-40s40,17.9,40,40v861.6
			C1041.7,1544.6,1023.8,1562.5,1001.8,1562.5z"/>
	</g>
	<g>
		<path class="st0" d="M1222.4,1562.5c-0.9,0-1.9,0-2.8-0.1c-22-1.5-38.6-20.6-37.1-42.7l60.4-861.6c1.5-22,20.6-38.6,42.7-37.1
			c22,1.5,38.6,20.6,37.1,42.7l-60.4,861.6C1260.7,1546.4,1243.2,1562.5,1222.4,1562.5z"/>
	</g>
	<g>
		<path class="st0" d="M1282.7,167.3H717.3c-20.4,0-37-16.6-37-37c0-20.4,16.6-37,37-37h565.5c20.4,0,37,16.6,37,37
			C1319.8,150.7,1303.2,167.3,1282.7,167.3z"/>
	</g>
	<g>
		<path class="st0" d="M560,1840.1c-22.5,0-41.6-17.2-43.6-40l-122-1361.4c-2.2-24.1,15.6-45.4,39.8-47.6
			c24.1-2.2,45.4,15.6,47.6,39.8l122,1361.4c2.2,24.1-15.6,45.4-39.8,47.6C562.7,1840,561.3,1840.1,560,1840.1z"/>
	</g>
	<g>
		<path class="st0" d="M1440,1840.1c-1.3,0-2.6-0.1-4-0.2c-24.1-2.2-41.9-23.5-39.8-47.6l122-1361.4c2.2-24.1,23.5-41.9,47.6-39.8
			c24.1,2.2,41.9,23.5,39.8,47.6l-122,1361.4C1481.6,1822.9,1462.4,1840.1,1440,1840.1z"/>
	</g>
</g>
</svg>
