<?xml version="1.0" encoding="utf-8"?>
<!-- Generator: Adobe Illustrator 24.0.1, SVG Export Plug-In . SVG Version: 6.00 Build 0)  -->
<svg version="1.1" id="Layer_1" xmlns="http://www.w3.org/2000/svg" xmlns:xlink="http://www.w3.org/1999/xlink" x="0px" y="0px"
	 viewBox="0 0 2000 2000" style="enable-background:new 0 0 2000 2000;" xml:space="preserve">
<style type="text/css">
	.st0{fill:#FF6B72;}
</style>
<g>
	<path class="st0" d="M1935.3,408.1L669.1,203.3c-30.4-4.9-51.1-33.5-46.1-63.9c4.9-30.4,33.5-51.1,63.9-46.1L1953.1,298
		c30.4,4.9,51.1,33.5,46.1,63.9C1994.4,392.4,1965.7,413,1935.3,408.1z"/>
</g>
<g>
	<path class="st0" d="M1439.9,1842.4H560.1c-25.5,0-46.2-20.7-46.2-46.2c0-25.5,20.7-46.2,46.2-46.2h879.9
		c25.5,0,46.2,20.7,46.2,46.2C1486.1,1821.7,1465.4,1842.4,1439.9,1842.4z"/>
</g>
<g>
	<path class="st0" d="M766.1,1562.5c-21,0-38.7-16.4-39.9-37.7l-48.9-861.6c-1.3-22,15.6-40.9,37.6-42.2c22-1.2,40.9,15.6,42.2,37.6
		l48.9,861.6c1.3,22-15.6,40.9-37.6,42.2C767.7,1562.4,766.9,1562.5,766.1,1562.5z"/>
</g>
<g>
	<path class="st0" d="M1001.8,1562.5c-22.1,0-40-17.9-40-40V660.9c0-22.1,17.9-40,40-40s40,17.9,40,40v861.6
		C1041.7,1544.6,1023.8,1562.5,1001.8,1562.5z"/>
</g>
<g>
	<path class="st0" d="M1222.4,1562.5c-0.9,0-1.9,0-2.8-0.1c-22-1.5-38.6-20.6-37.1-42.7l60.4-861.6c1.5-22,20.6-38.6,42.7-37.1
		c22,1.5,38.6,20.6,37.1,42.7l-60.4,861.6C1260.7,1546.4,1243.2,1562.5,1222.4,1562.5z"/>
</g>
<g>
	<path class="st0" d="M1608.6,182l-558.2-90.3c-20.2-3.3-33.9-22.3-30.6-42.5s22.3-33.9,42.5-30.6l558.2,90.3
		c20.2,3.3,33.9,22.3,30.6,42.5C1647.8,171.6,1628.8,185.3,1608.6,182z"/>
</g>
<g>
	<path class="st0" d="M560,1840.1c-22.5,0-41.6-17.2-43.6-40l-122-1361.4c-2.2-24.1,15.6-45.4,39.8-47.6
		c24.1-2.2,45.4,15.6,47.6,39.8l122,1361.4c2.2,24.1-15.6,45.4-39.8,47.6C562.7,1840,561.3,1840.1,560,1840.1z"/>
</g>
<g>
	<path class="st0" d="M1440,1840.1c-1.3,0-2.6-0.1-4-0.2c-24.1-2.2-41.9-23.5-39.8-47.6l122-1361.4c2.2-24.1,23.5-41.9,47.6-39.8
		c24.1,2.2,41.9,23.5,39.8,47.6l-122,1361.4C1481.6,1822.9,1462.4,1840.1,1440,1840.1z"/>
</g>
</svg>
